/* XPM */
static char * exit_xpm[] = {
"64 64 361 2",
"  	c #292D43",
". 	c #282D43",
"+ 	c #272B3E",
"@ 	c #25283A",
"# 	c #272B3F",
"$ 	c #26293D",
"% 	c #26293C",
"& 	c #242738",
"* 	c #292C41",
"= 	c #252839",
"- 	c #232637",
"; 	c #1F202D",
"> 	c #1F212C",
", 	c #242637",
"' 	c #27293C",
") 	c #222434",
"! 	c #282B3E",
"~ 	c #25273A",
"{ 	c #222432",
"] 	c #222334",
"^ 	c #2C2F46",
"/ 	c #2D3048",
"( 	c #2D3049",
"_ 	c #2B2E46",
": 	c #2A2D44",
"< 	c #2B2E45",
"[ 	c #292C42",
"} 	c #292B41",
"| 	c #242638",
"1 	c #2B2D44",
"2 	c #25283B",
"3 	c #212332",
"4 	c #20222F",
"5 	c #232534",
"6 	c #232636",
"7 	c #282B40",
"8 	c #212231",
"9 	c #272A3E",
"0 	c #262A3C",
"a 	c #242737",
"b 	c #222535",
"c 	c #1F222E",
"d 	c #282C41",
"e 	c #2A2E44",
"f 	c #2A2F45",
"g 	c #282B3F",
"h 	c #212534",
"i 	c #26293B",
"j 	c #272A3F",
"k 	c #212331",
"l 	c #1F212E",
"m 	c #2A2E43",
"n 	c #1D1F29",
"o 	c #20222E",
"p 	c #262A3D",
"q 	c #242839",
"r 	c #222534",
"s 	c #232737",
"t 	c #1C1D27",
"u 	c #252739",
"v 	c #212433",
"w 	c #202230",
"x 	c #212333",
"y 	c #1F212F",
"z 	c #26283B",
"A 	c #292E43",
"B 	c #292D42",
"C 	c #292D44",
"D 	c #25293C",
"E 	c #242739",
"F 	c #212431",
"G 	c #272A3D",
"H 	c #1B1D26",
"I 	c #1F212D",
"J 	c #202331",
"K 	c #202330",
"L 	c #1E212D",
"M 	c #232536",
"N 	c #25293B",
"O 	c #24273A",
"P 	c #1F222F",
"Q 	c #1D1F2A",
"R 	c #1E202C",
"S 	c #292C40",
"T 	c #292E44",
"U 	c #292E45",
"V 	c #202231",
"W 	c #222435",
"X 	c #212432",
"Y 	c #212434",
"Z 	c #1E1F2A",
"` 	c #1C1C25",
" .	c #1E1F2B",
"..	c #1C1E28",
"+.	c #1A1B24",
"@.	c #242639",
"#.	c #232638",
"$.	c #222536",
"%.	c #1C1E25",
"&.	c #1A1B22",
"*.	c #1A1A22",
"=.	c #1B1C25",
"-.	c #1D1E29",
";.	c #1D1F2B",
">.	c #1E222F",
",.	c #1E202B",
"'.	c #1C1E29",
").	c #1B1D25",
"!.	c #202332",
"~.	c #1D1E28",
"{.	c #1B1C24",
"].	c #1A1C23",
"^.	c #1A1B21",
"/.	c #1B1C23",
"(.	c #1D1F2C",
"_.	c #1E202D",
":.	c #1F202E",
"<.	c #1E1F2C",
"[.	c #1D202B",
"}.	c #181A1F",
"|.	c #1A1B23",
"1.	c #191A1F",
"2.	c #191A20",
"3.	c #1B1B24",
"4.	c #19191F",
"5.	c #232535",
"6.	c #202232",
"7.	c #1D202A",
"8.	c #191A21",
"9.	c #1A1C24",
"0.	c #1C1D26",
"a.	c #1C1C26",
"b.	c #1B1C26",
"c.	c #18191E",
"d.	c #18191D",
"e.	c #1B1B23",
"f.	c #1A1D25",
"g.	c #18191F",
"h.	c #17181B",
"i.	c #191B23",
"j.	c #191B22",
"k.	c #191920",
"l.	c #18181E",
"m.	c #1A1A1F",
"n.	c #19191E",
"o.	c #18181C",
"p.	c #181A20",
"q.	c #18181D",
"r.	c #17191C",
"s.	c #17181A",
"t.	c #17181C",
"u.	c #17181E",
"v.	c #17171A",
"w.	c #17171C",
"x.	c #17171B",
"y.	c #17181D",
"z.	c #18191C",
"A.	c #18181B",
"B.	c #191A1E",
"C.	c #171819",
"D.	c #1C1D24",
"E.	c #1F212B",
"F.	c #292B40",
"G.	c #1D202C",
"H.	c #16161A",
"I.	c #161619",
"J.	c #171719",
"K.	c #161719",
"L.	c #18181A",
"M.	c #1A1C21",
"N.	c #1B1D24",
"O.	c #16181B",
"P.	c #15161A",
"Q.	c #151619",
"R.	c #161618",
"S.	c #161718",
"T.	c #1C1E2B",
"U.	c #232736",
"V.	c #232738",
"W.	c #1C1D28",
"X.	c #19191D",
"Y.	c #151518",
"Z.	c #1B1B25",
"`.	c #191921",
" +	c #1E202A",
".+	c #26283A",
"++	c #282A3E",
"@+	c #1A1A21",
"#+	c #1A1A20",
"$+	c #252738",
"%+	c #282C3F",
"&+	c #2B2F45",
"*+	c #2B2F46",
"=+	c #2A2E45",
"-+	c #292D41",
";+	c #222433",
">+	c #1F2230",
",+	c #16171B",
"'+	c #1A1B20",
")+	c #1B1D27",
"!+	c #16171A",
"~+	c #242636",
"{+	c #1F2330",
"]+	c #222533",
"^+	c #232537",
"/+	c #25293A",
"(+	c #242838",
"_+	c #212330",
":+	c #1F202C",
"<+	c #212435",
"[+	c #1E212E",
"}+	c #1A1C22",
"|+	c #1C1D25",
"1+	c #161617",
"2+	c #1B1616",
"3+	c #171717",
"4+	c #3F1F17",
"5+	c #774618",
"6+	c #432A18",
"7+	c #1B1718",
"8+	c #1B1C22",
"9+	c #222333",
"0+	c #512416",
"a+	c #5B3618",
"b+	c #1F1A18",
"c+	c #2C1A17",
"d+	c #4A2817",
"e+	c #3E2317",
"f+	c #311817",
"g+	c #18191A",
"h+	c #20212F",
"i+	c #221917",
"j+	c #181718",
"k+	c #1B1717",
"l+	c #151617",
"m+	c #4F2015",
"n+	c #532C17",
"o+	c #261B18",
"p+	c #191718",
"q+	c #1F1818",
"r+	c #301B17",
"s+	c #19191B",
"t+	c #271A18",
"u+	c #1A1617",
"v+	c #2B1817",
"w+	c #2E1B17",
"x+	c #18191B",
"y+	c #1D1D27",
"z+	c #1C1E27",
"A+	c #211817",
"B+	c #19191C",
"C+	c #1D1E27",
"D+	c #1D1F28",
"E+	c #24283A",
"F+	c #262B3E",
"G+	c #191B20",
"H+	c #441C17",
"I+	c #3C1A17",
"J+	c #292E42",
"K+	c #622A17",
"L+	c #572517",
"M+	c #20232F",
"N+	c #2C3048",
"O+	c #2A2F44",
"P+	c #282C40",
"Q+	c #1A1C25",
"R+	c #1B1C20",
"S+	c #282C3B",
"T+	c #282C3D",
"U+	c #291718",
"V+	c #181719",
"W+	c #1C1E22",
"X+	c #272A38",
"Y+	c #232635",
"Z+	c #27293D",
"`+	c #2C3047",
" @	c #262B3D",
".@	c #301717",
"+@	c #936719",
"@@	c #381C18",
"#@	c #222530",
"$@	c #272C3E",
"%@	c #341A18",
"&@	c #191719",
"*@	c #4A2417",
"=@	c #171618",
"-@	c #2B2F44",
";@	c #1E1719",
">@	c #623E19",
",@	c #1E212C",
"'@	c #282D41",
")@	c #20212E",
"!@	c #222636",
"~@	c #191B21",
"{@	c #1A1B1F",
"]@	c #181717",
"^@	c #301C17",
"/@	c #1C1717",
"(@	c #301D18",
"_@	c #1C1E26",
":@	c #3B1B17",
"<@	c #391A17",
"[@	c #161717",
"}@	c #622A16",
"|@	c #612716",
"1@	c #2F1C18",
"2@	c #291A18",
"3@	c #1C1D29",
"4@	c #151618",
"5@	c #191B1F",
"6@	c #181B1E",
"7@	c #171A1C",
"8@	c #181B1F",
"9@	c #181C20",
"0@	c #181A1D",
"a@	c #16181A",
"b@	c #1D1E26",
"c@	c #371E18",
"d@	c #481D17",
"e@	c #311918",
"f@	c #1E2028",
"g@	c #1A1719",
"h@	c #4E2418",
"i@	c #351C18",
"j@	c #1D1F23",
"k@	c #22222D",
"l@	c #202228",
"m@	c #22232E",
"n@	c #232634",
"o@	c #151519",
"p@	c #1C1E23",
"q@	c #22232D",
"r@	c #222331",
"s@	c #222332",
"t@	c #2A2D42",
"u@	c #1E2029",
"v@	c #1A1A1E",
"w@	c #191A22",
"x@	c #181A1E",
"y@	c #1C1F29",
"z@	c #181920",
"A@	c #1B1C27",
"B@	c #1C1C24",
"C@	c #1C1C27",
"D@	c #1E1F2D",
"E@	c #1D1E2A",
"F@	c #1F2130",
"G@	c #1B1D29",
"H@	c #1D1D28",
"I@	c #232434",
"J@	c #202333",
"K@	c #2A2D43",
"L@	c #282C42",
"M@	c #272B41",
"N@	c #25283C",
"O@	c #26283C",
"P@	c #27293E",
"Q@	c #222436",
"R@	c #232435",
"S@	c #202130",
"T@	c #24273B",
"  . + @ # $ % & * * = @ - ; ; > , ' ) ! ~ ! { ] ^ / ( _ : < [ } | ~ 1 } 2 3 4 5 6 % % 7 $ 6 @ 6 , 8 $ 9 0 a a b & c # d   e f ^ ",
"g % @ h i , g j [ 9 % k 6 l 4 - 6 m { n ) g l o e @   7 @ p @ & b p p & 7 q b r & 9 9 i & s c 3 t 6 @ | l k u v w x y z 7 A B C ",
"D E b b b E p D - r 9 b 3 n 6 F G > H 4 > I J K L M N 2 v E v @ E % & - O v P 4 E p = 3 k u 8 3 { Q K R 4 K n ; l ) k ) S T U 2 ",
"& a l b w r - J I V W ) R X H Y - - , Z 6 `  .W u ..+.l x x b @.M J w #.3 R R y k $.V w J L Q ..%.&.*.t ..H ..H ..=.-.w E b 2 & ",
"M v ;.>.,.n Q '.Q Z ; l l L ).) !.-.~.{.].^...../.(.c ~.I l !.v l Q _.w :.H <.&.t t Q y n [.H ..&.}.|.=.t 1.2.3.).4.-.5.g , M < ",
"b 6...~.*.|.|.).).|.|.{.Q |.H 7.=.8.&.&.H |.9.0.H ).8.^.=.t a.t 0.t 0.t ..=.b.&.0.0.t Q ).9.&.{.1.&.^.|.c.d.e.f.-.'.L 3 5 X @ B ",
"b V t |.4.2.d.g.g.h.c.}.|.8.i.i.j.k.&.c.4.l.g.1.1.1.2.h.2.m.4.4.2.+.2.j.8.].c.n.9.&.9.1.1.&.&.d.c.o.c.n.n.4.1.^.2.b.7.,.v 6 7 g ",
"$.y n =.p.k.q.r.d.d.h.s.h.t.u.u.h.h.v.w.t.h.x.x.y.z.h.A.v.h.q.h.o.o.o.d.z.B.z.d.d.d.o.o.q.h.z.h.v.C.h.h.s.o.}.2.D.%.E.Q ~ 0 F.% ",
"| !.G.a.k.h.v.s.s.s.s.v.H.H.H.H.I.H.H.I.H.I.I.H.J.s.C.v.J.v.s.s.s.v.s.s.s.s.s.s.s.s.s.s.s.s.s.s.K.K.K.v.s.L.A.d.g.M.N.4 & ' 6 - ",
"s c {.&.g.t.O.P.Q.I.I.R.R.R.R.R.R.R.S.R.R.R.R.R.R.I.I.I.I.I.K.K.K.J.J.J.J.J.J.J.J.J.J.J.J.K.J.K.R.I.K.K.J.J.J.v.x.*.T.8 U.6 , 9 ",
"V.3 Q W.2.l.x.Q.R.R.R.R.R.S.S.S.S.S.S.S.S.S.S.S.S.S.S.S.S.S.K.J.J.J.J.J.J.J.J.J.J.J.J.J.J.J.J.J.K.K.K.J.J.J.J.J.v.X.{.Q ,.6 % , ",
"$ J L +.9.k.h.I.R.Y.R.R.S.S.S.S.S.S.S.S.S.S.S.S.S.K.K.K.K.K.J.J.J.J.J.J.J.J.J.J.J.J.J.J.J.J.J.J.J.J.J.J.J.J.J.J.v.X.).t K , _ 6 ",
"g 3 v _.Z.`.t.I.R.R.R.R.S.S.S.S.S.S.S.S.S.S.S.S.K.K.K.K.K.K.J.J.J.J.J.J.J.J.J.J.J.J.J.J.J.J.J.J.J.J.J.J.J.J.J.J.s.1. +& 5.B .+3 ",
"++) l b.@+q.w.H.R.R.R.S.S.S.S.S.S.S.S.S.S.S.S.S.K.K.K.K.K.K.J.J.J.J.J.J.J.J.J.J.J.J.J.J.J.J.J.J.J.J.J.J.J.J.J.J.A.#+o $+%+&+*+=+",
"-+;+>+[.9.1.w.,+I.I.I.K.K.K.K.K.K.K.K.K.K.K.K.K.K.K.K.K.K.K.J.J.J.J.J.J.J.J.J.J.J.J.J.J.J.J.J.J.J.J.J.J.J.J.J.J.s.'+v 6 7 .+2 %+",
"A % !.n )+n.d.v.K.!+K.K.K.K.K.K.K.K.K.K.K.K.K.K.K.K.K.K.K.K.J.J.J.J.J.J.J.J.J.J.J.J.J.J.J.J.J.J.J.J.J.J.J.J.J.J.v.X.; F o  .;+~+",
"p q {+W.2.2.n.t.K.K.K.K.K.K.K.K.K.K.K.K.K.K.K.K.K.K.K.K.K.K.J.J.J.J.J.J.J.J.J.J.J.J.J.J.J.J.J.J.J.J.J.J.J.J.J.J.J.z.%.]+N ^+w 4 ",
"/+;+Y _.8.2.l.s.K.!+K.K.K.K.K.K.K.K.K.K.K.K.K.K.K.K.K.K.K.K.J.J.J.J.J.J.J.J.K.K.K.K.K.K.K.S.S.S.S.S.S.S.S.K.J.J.J.h.D.W (+6 5._+",
"@ r 8 -.2.X.s.C.K.K.I.K.K.K.K.K.K.K.K.K.K.K.K.K.K.K.K.K.K.K.J.J.J.J.J.J.J.K.K.K.K.K.K.K.S.S.S.S.S.S.S.S.S.K.J.J.J.h./.:+P x a 6 ",
"- <+[+t }+8.s.J.K.K.K.S.S.S.S.S.S.S.S.S.S.S.S.S.S.S.S.S.S.S.J.J.J.J.J.K.S.S.S.S.S.S.S.S.S.S.S.S.S.S.S.S.S.K.J.J.J.h.|+; J y & ) ",
"% & 4 ..|.c.x.J.J.K.S.S.S.S.S.S.S.S.S.S.S.S.S.S.S.S.S.S.S.S.K.J.J.K.K.S.S.S.S.S.S.1+2+3+S.S.S.S.S.S.S.S.S.S.K.J.J.o.e..._.E 6 x ",
"# b Z t ).q.s.v.J.J.K.S.S.S.S.S.S.S.S.S.S.S.S.S.S.S.S.S.S.S.S.S.S.S.S.S.S.S.S.S.S.4+5+6+7+S.S.S.S.S.S.S.S.S.K.J.J.o.8+R I 4 3 9+",
"% X -.0.8.o.v.J.J.K.S.S.S.S.S.S.S.S.S.S.S.S.S.S.S.S.S.S.S.S.S.1+0+a+b+S.S.S.S.S.S.c+d+e+f+S.S.S.S.S.S.S.S.S.K.J.J.g+'+{.&.=...h+",
"~+x K 9.|.c.v.J.J.K.S.S.S.S.S.S.S.S.S.S.S.S.S.i+j+k+S.S.S.S.S.l+m+n+o+p+S.S.S.S.S.S.S.q+r+S.S.S.S.S.S.S.S.S.K.J.J.s+^...t ].]...",
"6 v , 0.].d.x.J.J.K.S.S.S.S.S.S.S.S.S.S.S.S.S.S.S.S.S.S.S.S.S.S.t+u+v+w+S.S.S.S.S.S.S.S.S.S.S.S.S.S.S.S.S.S.K.J.J.x+|.{.y+[+c ) ",
"@ X 3 z+^.d.v.J.K.S.S.S.S.S.S.S.S.S.S.S.S.S.S.S.A+S.S.S.S.S.S.S.S.S.S.S.S.S.S.S.S.S.S.S.S.S.S.S.S.S.S.S.S.S.K.J.J.B+C+L ,.l X r ",
"9 { V D+|.o.v.J.K.S.S.S.S.S.S.S.S.S.S.S.S.S.S.S.S.S.S.S.S.S.S.S.S.S.S.S.S.S.S.S.S.S.S.S.S.S.S.S.S.S.S.S.S.S.K.J.J.n.-.;.Q  .6 5 ",
"e (+5.R z+d.v.J.K.S.S.S.S.S.S.S.S.S.S.S.S.S.S.S.S.S.S.S.S.S.S.S.S.S.S.S.S.S.S.S.S.S.S.S.S.S.S.S.S.S.S.S.S.S.S.K.J.B+|+n ;+E+, 6 ",
"< F+6 l ,.G+x.J.K.S.S.S.S.S.S.S.S.S.S.S.S.S.S.S.S.S.S.S.S.S.S.S.S.S.S.S.S.S.S.S.K.H+I+K.S.S.S.S.S.S.S.J.J.J.J.J.J.o.0.l v V.@ # ",
"*+J+' M Q |.h.J.K.S.S.S.S.S.S.S.S.S.S.S.S.S.S.S.S.S.S.S.S.S.S.S.S.S.S.S.S.S.S.S.K.K+L+K.K.K.K.K.K.K.K.J.J.J.J.J.J.n.M+;+- 2 % $ ",
"N+O+P+- I Q+h.J.K.S.S.S.S.S.S.S.S.S.S.S.S.S.S.S.S.S.S.S.S.S.S.S.S.S.S.S.S.S.K.K.J.J.J.J.J.J.J.J.J.J.J.J.J.J.J.J.v.R+S+T+6 a 9 i ",
"N+A 9 J w +.o.v.K.S.S.S.S.S.S.S.S.S.S.S.K.K.K.K.J.J.J.J.U+V+K.K.K.K.K.K.K.K.K.J.J.J.J.J.J.J.J.J.J.J.J.J.J.J.J.J.s.W+X+Y+u Z+* < ",
"`+ @, K L 8.o.J.K.S.S.S.S.S.S.S.S.S.S.S.J.J.J.J.J.J.J..@+@@@J.J.J.J.J.J.J.J.J.J.J.J.J.J.J.J.J.J.J.J.J.J.J.J.J.J.J.B.#@= @ N i G ",
"=+$@% M J }+t.v.J.K.K.K.K.K.K.K.K.K.K.K.J.J.J.J.J.J.J.J.%@V+J.J.J.J.J.J.J.J.J.K.J.J.J.J.J.J.J.J.J.J.J.J.J.J.J.J.J.x+W.h+W @ 7 =+",
"m + % X Q 8.o.v.J.K.K.K.K.K.K.K.K.K.K.K.J.J.J.J.J.J.J.J.J.J.J.J.J.J.&@*@=@J.J.K.K.K.K.K.K.K.K.K.J.J.J.J.J.J.J.J.J.A.0.F q g -@N+",
"9 3 ;+R R @+t.J.K.S.S.S.S.S.S.S.S.S.S.S.J.J.J.J.J.J.J.J.J.J.J.J.J.J.;@>@p+J.J.K.K.K.K.K.K.K.K.K.J.J.J.J.J.J.J.J.J.A.z+;+V.9 O+N+",
"9 - & l ,@8.h.J.K.S.S.S.S.S.S.S.S.S.S.S.J.J.J.J.J.J.J.J.J.J.J.J.J.J.J.J.J.J.J.K.K.K.K.K.K.K.K.K.J.J.J.J.J.J.J.J.J.A.'.v q ~+'@p ",
") , l v ;.2.v.J.K.S.S.S.S.S.S.S.S.S.S.S.J.J.J.J.J.J.J.J.J.J.J.J.J.J.J.J.J.J.J.S.S.S.S.S.S.S.S.K.K.K.K.K.K.K.K.K.J.A.e.z+K 3 J % ",
"w , )@z+)+n.s.v.K.S.S.S.S.S.S.S.S.S.S.S.K.J.J.J.K.K.K.S.S.S.S.S.S.S.S.S.S.S.S.S.S.S.S.S.S.S.S.S.S.S.S.S.S.S.S.R.J.L.3.[.K S d k ",
"M !@ +9.~@{@s.J.K.S.S.S.S.S.S.S.S.S.S.S.K.J.J.J.K.K.S.S.S.S.S.S.S.S.S.S.S.S.S.]@l+S.S.S.S.S.S.S.S.S.S.S.S.S.S.S.J.s.1.H X & = =+",
"r !.-.0.9.2.s.J.K.S.S.S.S.S.S.S.S.S.S.S.K.J.J.J.J.K.S.S.S.S.S.S.S.^@/@S.S.S.S.(@]@S.S.S.S.S.S.S.S.S.S.S.S.S.S.K.J.J.c._@Y a i =+",
"r K Z l N.@+o.s.K.R.R.R.S.S.S.S.S.S.S.S.K.J.J.J.J.K.:@<@S.S.S.S.S.j+S.S.S.S.S.S.S.[@l+S.S.S.S.S.S.S.S.S.S.S.S.K.J.J.1.=.[+w - ~ ",
"@ 5.; ..].k.r.s.K.R.R.R.S.S.S.S.S.S.S.S.K.J.J.J.J.K.}@|@S.S.S.S.1@k+S.S.S.S.S.S.S.2@l+S.S.S.S.S.S.S.S.S.S.S.S.K.J.J.^.{.].n G 0 ",
"h+Y ;.@+B.g.A.C.K.R.R.R.S.S.S.S.S.S.S.S.K.J.J.J.J.K.S.S.S.S.S.S.S.S.S.S.S.S.S.S.S.S.S.S.S.S.S.S.S.S.S.S.S.S.S.K.J.J.d.&.).Q ;., ",
"v I w 3@2.h.h.s.K.4@R.R.S.S.S.S.S.S.S.S.K.J.J.J.J.K.S.S.S.S.S.S.S.S.S.S.S.S.S.S.S.S.S.S.S.S.S.K.K.K.K.K.K.K.K.J.J.J.A.|.t n w v ",
"..t -.z+&.c.h.s.K.R.R.R.S.S.S.S.S.S.S.S.K.J.J.J.J.K.S.S.S.S.S.S.S.S.S.S.S.S.S.S.S.S.S.S.S.S.K.J.J.J.J.K.K.K.K.J.J.v.x+N.n n I v ",
"h+w ; ,.z+2.5@6@7@R.R.R.S.S.S.S.S.S.S.K.K.J.J.J.J.K.S.S.S.S.S.S.S.S.S.S.S.S.S.S.S.S.S.S.S.S.K.J.J.J.J.J.J.J.J.J.J.v.B+_@].z+| 3 ",
"6 !@w ,.].j.8@9@0@K.K.K.K.K.K.K.K.K.K.K.K.K.J.J.J.J.K.S.S.S.S.S.S.S.S.S.S.S.S.S.S.S.S.S.S.K.K.J.J.J.J.J.J.J.J.J.J.v.X.N.,.X k 3 ",
"r :+Q c H d.h.v.a@I.I.I.K.K.K.K.K.K.K.K.K.K.J.J.J.J.J.J.J.K.K.K.S.l+S.S.S.S.S.S.S.S.S.S.K.K.J.J.J.J.J.J.J.J.J.J.J.v.X.b@-.M+k % ",
"v )@h+t &.d.h.K.!+!+K.K.K.K.K.K.K.K.K.K.K.K.J.J.R.c@&@J.J.J.J.J.R.d@e@J.J.J.J.J.J.J.J.J.J.J.J.J.J.J.J.J.J.J.J.J.J.L.B.f@X & G 7 ",
"v v ;.-.).8.t.K.!+!+K.K.K.K.K.K.K.K.K.K.K.K.J.J.J.g@J.J.J.J.J.J.=@h@i@J.J.J.J.J.J.J.J.J.J.J.J.J.J.J.J.J.J.J.J.J.J.L.j@k@Y+& g ~+",
") E I t ^.k.v.I.R.R.R.R.S.S.S.S.S.S.S.S.S.S.J.=@1@J.J.J.J.J.J.J.J.J.J.J.J.J.J.J.J.J.J.J.J.J.J.J.J.J.J.J.J.J.J.J.J.L.l@m@n@r Z+G ",
", V ..-.@+k.h.o@Y.4@R.R.S.S.S.S.S.S.S.S.S.S.J.J.J.J.J.J.J.J.J.J.J.K.K.K.K.J.J.J.J.J.J.J.K.K.K.J.J.J.J.J.J.J.J.J.J.L.p@q@4 k 6 B ",
") J h+b.*.o.s.o@Y.R.R.R.S.S.S.S.S.S.S.S.S.S.J.J.J.J.J.J.J.J.J.K.K.S.S.S.S.S.S.K.S.S.S.S.S.S.S.J.J.J.J.J.J.J.J.J.J.A.8+r@s 5.I - ",
"M P '.|.@+l.s.I.R.R.R.R.I.I.K.K.S.S.S.S.S.S.J.J.J.J.J.J.J.J.J.K.K.K.K.K.K.K.K.K.K.K.K.K.K.K.K.J.J.J.J.J.J.J.J.J.J.A.#+o 6 E+7 P+",
"a J ,.b.e.4.h.I.H.H.H.I.I.I.K.K.K.K.K.K.K.K.J.J.J.J.J.J.J.J.J.J.K.K.K.K.K.K.K.J.K.J.J.J.J.J.J.J.J.J.J.J.J.J.J.J.J.A.{.s@& # e t@",
") P n t Z.B.o.h.v.s.s.J.J.J.J.J.J.J.J.J.J.J.J.J.J.J.J.J.J.J.J.J.J.J.J.J.J.J.J.J.J.J.J.J.J.J.J.J.J.J.J.J.J.J.J.s.x+{@u@9+6 E 9 2 ",
"!.c [+n =.2.q.y.t.o.o.t.h.h.x.x.x.h.h.h.x.h.A.z.h.x+A.o.o.h.A.v.o.d.c.A.h.d.A.v.A.v.A.A.A.x.x.v.h.h.z.z.A.o.X.X.v@{.0.:+E + @ 2 ",
"v 3 l ~.9.w@g.q.h.h.o.4.n.q.c.l.l.t.l.c.q.c.1.G+}.d.x@2.2.d.2.B.d.@+2.2.g.c.o.g.c.q.X.o.q.A.o.c.h.n.o.n.d.n.2.~@0.y@..J 6 E 2 d ",
"M - 3 ;.'.0.*.k.1.}.g.&.Q+1.g.k.&.z@|.&.w@&.@+~@}+&.|.|.^.4.2.d.4.1.+.b.4.A@4.^.c.h.g.d.t.q.o.c.h.d.d.2.d.1.^.@+8.'+-.w 5 @ % % ",
"2 E & #.6 J -.9.|.3.3.-.b.).)+{.t Q 7.z+{.e.|.|.B@-.-.a.C@].3.*.3.W.t D@@+2.q.k.s.o.g.c.&.q.2.o.d.c.2.t |.2.^.].&.|.[+W w v 2 @ ",
"E 6 & g @ k :+'.=.*.E@>+F@y (.;.G@y P R  .;. .,.G._.;.n ,._.[.0.w ;.!.-.8.[.&.z+{./.a.2.|.1.|.d.3.&.=.y@=...H@7.; l k l ;+E G B ",
"g 9 G 7 & v V J y <.I@W w 8 X ) & - - & ^+v x x ) b v x v x V J@l ) b & #. .<.{.H 6.H =.t {.G.W.'.-.l 3 - k _.-.D+v E @ @ N @ % ",
"F.7 [ K@# % 2 E @ j %+# d B             L@# 2 D M@j 9 % N N@O@N@) P@O@] ] 3 3 )@] h+, Q@h+R@b.S@-.!.T@- x ;+v 8 !@2 @., E N 7 : "};
