/* XPM */
static char * wall_xpm[] = {
"64 64 112 2",
"  	c #2A2D47",
". 	c #2A2D45",
"+ 	c #2A2D46",
"@ 	c #2C2F4B",
"# 	c #2E3252",
"$ 	c #333861",
"% 	c #383F71",
"& 	c #343A65",
"* 	c #282B3F",
"= 	c #222326",
"- 	c #232327",
"; 	c #232429",
"> 	c #24252F",
", 	c #23242A",
"' 	c #232328",
") 	c #222224",
"! 	c #222325",
"~ 	c #252631",
"{ 	c #343964",
"] 	c #31365C",
"^ 	c #27293C",
"/ 	c #353B67",
"( 	c #383F6F",
"_ 	c #363C6A",
": 	c #252633",
"< 	c #24252D",
"[ 	c #24242C",
"} 	c #2A2E47",
"| 	c #333962",
"1 	c #383E6F",
"2 	c #343A64",
"3 	c #2E3253",
"4 	c #2F3356",
"5 	c #353B68",
"6 	c #383F70",
"7 	c #373E6E",
"8 	c #363D6C",
"9 	c #333963",
"0 	c #363C6B",
"a 	c #23242B",
"b 	c #262735",
"c 	c #2C2F4C",
"d 	c #353C69",
"e 	c #353B66",
"f 	c #2A2C44",
"g 	c #24242B",
"h 	c #242530",
"i 	c #232326",
"j 	c #24252E",
"k 	c #323860",
"l 	c #2F3456",
"m 	c #262838",
"n 	c #32375F",
"o 	c #292B41",
"p 	c #282A3D",
"q 	c #31365D",
"r 	c #373E6F",
"s 	c #363D6B",
"t 	c #2E3354",
"u 	c #272939",
"v 	c #2A2E48",
"w 	c #303559",
"x 	c #363C69",
"y 	c #252734",
"z 	c #252632",
"A 	c #2E3355",
"B 	c #2F3457",
"C 	c #27293B",
"D 	c #373D6D",
"E 	c #2B2E48",
"F 	c #343A66",
"G 	c #32375E",
"H 	c #2B2E49",
"I 	c #262839",
"J 	c #2D3151",
"K 	c #2C304D",
"L 	c #31375E",
"M 	c #282A3F",
"N 	c #343B66",
"O 	c #2B2F4A",
"P 	c #222223",
"Q 	c #272839",
"R 	c #30355A",
"S 	c #303458",
"T 	c #2F3355",
"U 	c #373D6C",
"V 	c #272A3C",
"W 	c #282B40",
"X 	c #2B2F4B",
"Y 	c #2D314F",
"Z 	c #31375D",
"` 	c #292C43",
" .	c #262836",
"..	c #31365B",
"+.	c #2D304F",
"@.	c #292C42",
"#.	c #373E6D",
"$.	c #262736",
"%.	c #282A3E",
"&.	c #31355B",
"*.	c #2D304E",
"=.	c #262837",
"-.	c #2D3150",
";.	c #292C44",
">.	c #27293A",
",.	c #2C304E",
"'.	c #333862",
").	c #252630",
"!.	c #292B42",
"~.	c #303558",
"{.	c #384071",
"].	c #394071",
"  . + @ # $ % & * = - ; > , ' - ) ! , = = ~ @ { ] ^ ' -   / ( _ # : - - ! , , < ~ - ; , , ) [ } | ( 1 2 3 4 5 6 6 7 8 2 $ 9 / 0 ",
"< a [ ~ b c d e f ' ! g h ' - ' ' i ! ! - j + k l b ! ) m n 6 2 o i i = i , ; j b [ ' ' - - ; p q r s t u v { 6 % 6 % 1 7 1 1 r ",
") ! ! - ! b w x 3 y ) [ z ; ! ' a ' ) ) ! ' p ] A y ! = ; B 6 n C - g - i = ) , h [ = i ! ' = z t D 0 B E 4 x 6 ( d _ 7 6 % 7 F ",
") i = i ) ' f k G H < ' > ; i , a i ! ' = ) C q w I ! = ) # 7 3 h i a , i - ! = ' i ! ' [ a ! > J 8 D { G 9 s 1 ( & $ _ % 7 $ K ",
"! - ! ) - ) > . L G M ' a ' - [ g ) ) ' i g E N { + , ! < l 0 O ) ) - ; ' ; - ) P P ) i ~ g - Q R _ | S t 3 T k 7 U d D 7 k   > ",
"= , i ) , ' ! y R x T . V [ i ' ' ! P ) b E q 5 / 4 W ^ X 9 U Y ' = ' = = = = ! = = ! ) a - h @ k Z } m b y : ` q x ( 6 / c j ' ",
"i [ , = a ; ) ^ ] U 5 | 4 W  .~ g , ' h Y 2 e ..k & G ] F 7 ( R : ' a ' i ) ! ' ; ' ! ) ' a + $ | O > ' ' , - , ^ T d 7 $ ` ' , ",
"i [ a ' , - ' . k _ & n S +.@ @ H . @.c 9 ( x T L #.#.U r ( 1 { O ~ - ' - i = ' ; i - [ $.M ..D k p ; j g , , = = %.w s F Y b ; ",
"= ' i ' ; = z J $ $ K %.o + c B 9 | k & x s D { / D d & | 2 / _ | H j i ) ! ) - i ! b o @ # / _ # z , j [ ' ' ; = g ` 2 #.k + j ",
"i = ) = ' = ` Z &.*.y ) ; j =.@ / 1 #.s n n U #._ k T K + c 3 n / n O I > ; ) [ ~ $.*...R w 5 k W ; ; g ; ! ! ; ' ) ~ S s | -.p ",
"i ! ) = i ) 3 2 *.m - ) = ) -  .n 6 7 F T ..U 8 G v I ~ j z I ;.t 9 9 B X W >.. -.4 & s F $ / l y = = , ; ! ! ' ' ! g ,.| ..T T ",
"! i = i ) i R F + j = = - = ) > R 6 ( 5 k N 1 _ J ~ ' ! ; - [ g m S _ _ { q w n 9 | / d x _ 5 *.[ ! ) ' , - = = i = a O '.$ '.F ",
"= ' ' = , Q k N K =., = = ! !  .Z 6 % 1 #.( 6 d ,.< - - ; ' [ - ' + 9 7 7 x | Z T ,.-.-.R F 5 X ! ) ) = - i = ! ! ! a E & D 5 Z ",
"; i = ) I 3 / x L O ~ - a z p -./ % ( ( 1 ( 6 s S u ; i ' , a - ! * $ D / ] +.`  .> > h @.q F H ) ! ! ) ) ! = = ) ) , } / #.L f ",
"' - a y +.& 7 #._ k c @.} J Z e s 5 | k k $ _ 7 N J >.' i ; i - > c e & -.%.~ , - P P ' C ] 2 + P ! ! ) ) ! = = ) ) , X x 5 K h ",
"! ).%.Y & 7 % 8 s U e 9 & d #._ ..X ` W * ` A / U & # : , j : %.@ n x B b ' ) ) i ) P ; f 9 F ` ! = ! ' ' i ! ! ) P [ 3 #.9 @.a ",
"C O w & 1 7 / w ..d 6 ( 7 7 d R o , g [ i ' $.*.$ _ 2 -.@ O -...{ d x l : i = P = - ~ W S x s J ~ = ) , , i - , ) ) Q G 7 2 H > ",
"] & s ( #.9 c m %.l s ( U / l !.h - j ~ ; ' i > f ] _ _ / 2 $ k ] G / $ +  .> ; : o J n n { s $ + g ) i = = , ; = ^ # 5 7 s R V ",
"#.6 6 % & ,.> ) i M | 6 #.| } > - ' [ ~ < [ [ = , + & 6 #.2 T + >.` ] / G B Y X 3 n F 2 3 Y k / w %., - = = ' - p R / 7 6 ( / T ",
"s U 6 #.A  .) ' ' : &.( 7 $ f , ! ; - j a ; > ; ) I q 7 _ # b ; ' [ O & U U _ / 5 U _ R ` I T s d B f u b y z M R _ #._ 5 x 8 _ ",
"4 q U 9 %.- ' ' , h T U 7 2   , i g ' [ , a ~ , ) b R #.& o ) g [ a   { 7 1 7 _ 2 & d k @ } ] s s / k B -.3 3 q / $ n A -.t | 7 ",
"=.-.x w j ' a - g ~ A _ 7 _ J b ' ' g ~ j j z , ! Q ..U $ >.) [ ; : 3 d 7 _ 9 ~.O K 2 #.| w ] ..R | 5 5 9 5 s 8 n ` @.m z =.+./ ",
">.B / -., [ ; , [ z B s U #.| K y = [ y j a g ; b O $ #.9 f > ).z + k 8 5 ..K V z !.$ 7 k J . ^ %.X ..& 5 7 1 { E , > > ' ' %.k ",
"# F 9 @.i ~ - , ,  .Z 7 s D #.| O < , )., ! ' C 3 $ _ 6 _ R c K 3 n 0 5 4 W : g C -.k ... b g ; a > @.B / 7 2 c ).' < ~ a ' $.R ",
"2 7 n =.; b i i ~ f & ( s s D _ ] + m $.m  .V 3 & e / d 5 / F e 0 s 5 w V a i : -.G S V [ ! i a ; ! j   9 5 # b = ; j > , ' y ~.",
"7 7 ..b ~ b = : } B 5 #./ G R ..k k S t S S &.| n 3 +.+.# $ 1 1 6 / T * , ! = M ..q E i , - ' [ , i = I B R M , = - g [ ' ! =.] ",
"( D n !.z j y K ..| k G t ` >.V -.9 & F 8 s s $ O $.).j z # 7 6 7 w C a ) - : c w c y , j , ' ; , i ! : -.J $.= = ! = - ! , ;.{ ",
"1 7 _ w %.Q T 9 | q H M  .a , ; $.O # ] s 6 U 4 y ; , ; ! f _ {./ . ; = [ >.-...-.$.; > > < ; a j ; = ~ 3 R !.; ! ! P ) j ` ..8 ",
"& 5 7 s ..B s _ ..X > , g i [ h a j z ` | ]._ E - ; j h ' %.5 ( w h ) [ ;.B / { ` ' [ , h h < ).~ ' )  .] d B !.V p >.p K Z e 2 ",
"} J n 8 D 9 _ / *.m ) , > a < y g ' ) j ~.{.d f ) - , g ' H U _ E , j C &.8 r L b - j i ).~ [ j [ ' : *.5 6 / '.$ k G G 2 | T . ",
", b @.] U | | { ;.[ ) i , a [ y < [ ' ' 3 ( _ H - ! i ' z ..6 F O ` c A x ].U # z h g , > > ' i ' =.-.{ D _ / #.% % 1 _ Z O b ' ",
"i ' [ + n $ d | p ) = - = = , z ~ > [ i O _ s Y a = < C Y d 6 s k $ / d 7 6 U 3 : z ' ' [ , ' a p T 9 { q t -.R s {.7 G !.[ ) - ",
"; ' = z @ w r 9 C ) - ' a ' , ).)., , = o F D l m y ` l e 7 s 1 7 U _ & | d 7 q Q j ' i , j =.v ] 5 9 Y p y > I n 6 _ X < i - ' ",
"; ; = i =.E / / o ' = ' > [ , j > - ' - + d 1 | T 3 Z x 6 7 _ r 6 9 3 O   t / F -.@.C =.C O 4 9 8 9 *.=.= ! ) - B r k Q ' a a ' ",
"i ' ' ) ' y q s 3 p , ' > j , a < ; - ' c 7 6 7 _ / / _ 7 6 r 7 / *.: j [ =.t d / k w B R F s 1 s J : a - = ) ' ~.8 J [ ' j [ - ",
"- - ; i P - B ( / S C - g a , ' ; ' = - +.r 6 #./ n B 4 | 7 #.| 3 m ! ; ' ' ` & ( 7 s / d 7 6 6 / . ; [ [ i [ M k / + , , > [ , ",
"[ ' , , ) ) l % 6 5 c , = = ; , ! ! ) [ l 6 7 $ J ` ^ W l / ] H ^ h ' ' ' i %.| 6 6 5 w ..9 7 6 | M ; [ j z + ] d G >.a , j > [ ",
"j , g g ! ' R {.% 7 ] o < ) - < ! ! ; Q n 7 & ,.=.[  .O q G . z y z [ - i = o & 1 d l C %.c / 6 { E C ^ V @ G d _ ~.m [ ; [ j g ",
", ; ; ' - %./ ].% % s q + [ ! , ' , V t 9 k *.I g ~ H n / t : > b z h - ) : # x & t %.i , b G % U k ] ] B ] $ R k Z . > - , < g ",
", ! ' b ;.R 7 _ e _ r #.G E %.C M   w / ] .  .I W c n U 0 c [ ~ z j [ , m Y F d -.I , ; g h S 6 6 s s 7 2 B K ^ -.]   j - = , , ",
"M =.M J 9 U F K H S s % #.& k ..G 2 U & H : m J k N D 6 F ` , h j ' i y 3 / 1 | ^ g ' [ j h T U d L n _ $ f z i >.c @.[ - ) ) ) ",
"] w q F ( s -.b o l s % ( 6 ( 7 7 6 ( ] v c t F ( 6 % ( 9 %.- ; [ : %.Y { 7 ( w z ~ [ ' ' h w 5 B W o B S M a ' j ` -.+ p  .=.=.",
"/ 0 #.1 7 L * *.] e 1 7 s U 6 {.6 6 6 | G 5 _ U s s ( 6 s J W * E T $ / F / _ -.[ ~ ; i ; ^ L k f ; , + ..T o %.O w F & k w S ~.",
"# Z F 1 r k 3 F #.7 d n R Z _ % ( 6 % #.#.% 8 n 4 R d 6 % 5 k k 9 x ( 7 | | / c , ; i j I -.~.O y - $.3 / | Y K S Z & s 8 d _ D ",
"h ^ O { 6 #._ D U F # M %.J 5 % 6 7 s s 6 7 k   =.o Z r 6 ( d $ L ] k 9 $ / _ -.h -  .o 3 | J > , u # N / 3 ` ` ` o H T B w 2 ( ",
"' = j T 1 ].7 k w ,.b - Q R U 6 0 $ 4 w s 8 t y - $.S 7 D 2 4 ` V C * E A F U Z + V # q 5 U # j Q t / 7 Z u a h , ) >  .b I # s ",
"[ i - # 7 7 q f V ~ ' : +.5 U 5 R + m * 2 U 4 m m O k 7 / J  .- - < j < W ..D s k &.& s 6 ( G X t / 6 D 3 j i z > ) [ ' i ) . / ",
", ' b w _ G W a a i b @ 9 U 2 S @.j j m | ( 9 # 3 $ _ 8 G W - , < : z ; y -._ 6 8 5 9 9 7 6 s k k d 1 s -.[ g  .).) [ , - ! . 5 ",
"- : K G B !.a ) ' b Y | U N T o ).z M +.5 6 #./ 5 #.( F X ).a j ).b ~ ' g + / 6 _ k -.J d ( 7 k A w 5 D l ).a z , ) , g ' > ,._ ",
": O n S C , i i b c { r U R o b p X S F #.U 8 s #.( 1 { W ' < h h z [ i g E / ( d ] -.S _ 7 #.k -.T & 7 k M ).< ' a < b %.E Z 7 ",
"-.G n   ; ' ~ M 3 | #.6 #.R f c ..9 5 _ 9 &.B l G { / 2 c [ ; [ > h i , o &.0 U d e & & 5 F F k ] { s ( d B c ;.!.E H -.B ..{ s ",
"/ 9 -.b [ m X n d 7 7 #.7 / n F #.( 5 ..+ p  .b *   t | ..>.! - g g = m w 8 #.F & 7 #.G t K K K # | #.% 7 5 & | k | k q S # T w ",
"7 & # ;.X T G / & | n Z e #.U _ U r w %., ; g , g [ V B | J ^ m ~ $.W # d 6 1 / & 7 9 } $.j h z $.K { ( 7 U r D 2 q T c @.m p * ",
"7 s F | / 0 ] K E o %.M *.F #.9 9 5 H i i ~ y h g , j   $ & Z B 3 w $ 5 _ 2 d #.#._ +.)., ; ; , a m 3 d 7 7 #.k O p y ~ ~ z b h ",
"d ( % 1 x & E ~ < - - ' z # 2 | 5 F f P ' b $.j , > j %.Z 7 r 5 F U 6 r | l $ 7 8 &.m ' [ [ < h z y O & ( U $ + , ' ' , > y b > ",
"'.( {.s l   ~ ).< ' - ; - m J { ( d E ! i ).~ , i [ [ V R 1 #.2 Z / r 7 2 n 5 7 '.f , i h < > z ~ : K 5 ( 2 K h ) [ g a [ > : : ",
"..r ( k %., ; ~ z < - g , [ o k D d S Q g j > , ) ! ).c { _ R c + 3 G & x #.6 r $ ` , - ~ > [ a h * w U 1 Z M i = j , , a [ z ~ ",
"B #.s -.[ ) [ b m : , > < , C q { n | # >.g [ , ' < f $ 7 L C j h ^ o @ n #.6 r 5 l m ; < < [ :   ~./ 6 1 Z M ' ! g , ' , [ ).[ ",
"l D / f - - ,  .m z g ).[ a ;.Z 4 @ $ 9 +.I =.m %.E R U 7 -.- ) , ).j ).+ Z _ 7 7 d J ^ %.u o J n 9 2 _ 7 & J m ' ' ' ! i g < [ ",
"B U N o , , ' : b < ' [ g m t 9 3 f k _ n J # T ..9 x r _ v - ' ' ; ' = < o t 2 #.7 / ..] S q 9 $ T K T | 0 & # M b > [ g > b !.",
"..D 2 o g ; , j z a ) - z ,.9 8 k -...$ R T w k & s U D & * - a ' - i ! ) ; b *.q k _ U #.8 F R c >.> b c F 7 & ..T *.H + E +.B ",
"{ #.9 W , - ' ; < ' ; b E $ 8 #.k c H E o W + K # ] / s R z ! , , , ' ) ) ) ) =.o @.S 8 ( ( ] W z , ' = m ] 7 #.U s / '.] R ] ] ",
"'._ & E a ! ! ' j z @.A $ _ F L @ $.).j ' , [ h z !...e -., ) , , ' i ) = = ) ; , ; o k #.7 J [ ' ' g ; h T #.( #.s / G T -.-.K ",
"c q / w M  .m %.} Y n _ U { -.o h ! = ! P ! i i ! < H Z ,.j P ; , ) ) P i = ) - , i > ,.5 U c i ; ' ' ' ).A 7 1 9 4 K @.I y y b "};
