/* XPM */
static char * floor_xpm[] = {
"64 64 420 2",
"  	c #313652",
". 	c #313752",
"+ 	c #313751",
"@ 	c #323652",
"# 	c #323752",
"$ 	c #313851",
"% 	c #313951",
"& 	c #323751",
"* 	c #333751",
"= 	c #333851",
"- 	c #343851",
"; 	c #343951",
"> 	c #313A51",
", 	c #313B50",
"' 	c #313A50",
") 	c #323951",
"! 	c #333A51",
"~ 	c #343A51",
"{ 	c #343A50",
"] 	c #353A50",
"^ 	c #363A50",
"/ 	c #363B50",
"( 	c #353A51",
"_ 	c #373C50",
": 	c #313C50",
"< 	c #313D50",
"[ 	c #323C50",
"} 	c #333C50",
"| 	c #343C50",
"1 	c #363C50",
"2 	c #363D4F",
"3 	c #373D4F",
"4 	c #393D4F",
"5 	c #383D4F",
"6 	c #393E4F",
"7 	c #383E4F",
"8 	c #383D50",
"9 	c #373E4F",
"0 	c #3A3E4F",
"a 	c #3A3F4F",
"b 	c #393F4F",
"c 	c #313D4F",
"d 	c #313E4F",
"e 	c #323E4F",
"f 	c #343E4F",
"g 	c #353F4F",
"h 	c #383F4F",
"i 	c #39404F",
"j 	c #3B404F",
"k 	c #3B404E",
"l 	c #3B414E",
"m 	c #39404E",
"n 	c #38404F",
"o 	c #38404E",
"p 	c #3B414F",
"q 	c #3A404F",
"r 	c #373F4F",
"s 	c #363F4F",
"t 	c #323F4F",
"u 	c #35404F",
"v 	c #3A414E",
"w 	c #3C414E",
"x 	c #3C424E",
"y 	c #39414F",
"z 	c #37404F",
"A 	c #36404F",
"B 	c #39414E",
"C 	c #343F4F",
"D 	c #333F4F",
"E 	c #38414F",
"F 	c #323A51",
"G 	c #333D50",
"H 	c #373F50",
"I 	c #353C50",
"J 	c #333951",
"K 	c #333A50",
"L 	c #343E50",
"M 	c #333B50",
"N 	c #323851",
"O 	c #373E50",
"P 	c #323B50",
"Q 	c #323D50",
"R 	c #3A404E",
"S 	c #3D424E",
"T 	c #3B424E",
"U 	c #333E50",
"V 	c #3E444E",
"W 	c #3D434E",
"X 	c #3C434E",
"Y 	c #3D444E",
"Z 	c #3B434E",
"` 	c #39424F",
" .	c #35414F",
"..	c #33404F",
"+.	c #32404F",
"@.	c #34404F",
"#.	c #37414F",
"$.	c #353951",
"%.	c #393E50",
"&.	c #3D434F",
"*.	c #40464E",
"=.	c #3F454E",
"-.	c #40454E",
";.	c #3D454E",
">.	c #3B444F",
",.	c #3A444F",
"'.	c #39434F",
").	c #35424F",
"!.	c #324150",
"~.	c #314150",
"{.	c #324250",
"].	c #34424F",
"^.	c #37434F",
"/.	c #3F464E",
"(.	c #3E464E",
"_.	c #3C444E",
":.	c #3A424F",
"<.	c #3A3E50",
"[.	c #3E434F",
"}.	c #41474E",
"|.	c #40474E",
"1.	c #39444F",
"2.	c #36444F",
"3.	c #35434F",
"4.	c #3C454E",
"5.	c #37444F",
"6.	c #314250",
"7.	c #304250",
"8.	c #36434F",
"9.	c #3D464E",
"0.	c #3C434F",
"a.	c #383E50",
"b.	c #393F50",
"c.	c #3D444F",
"d.	c #41484E",
"e.	c #3C454F",
"f.	c #38444F",
"g.	c #344350",
"h.	c #324350",
"i.	c #3F474E",
"j.	c #3A454F",
"k.	c #35444F",
"l.	c #3E444F",
"m.	c #363B51",
"n.	c #333752",
"o.	c #3A4050",
"p.	c #3E454F",
"q.	c #42494E",
"r.	c #42484E",
"s.	c #40484E",
"t.	c #3D464F",
"u.	c #38454F",
"v.	c #344450",
"w.	c #324450",
"x.	c #3F484E",
"y.	c #3C464F",
"z.	c #36454F",
"A.	c #304350",
"B.	c #304351",
"C.	c #314351",
"D.	c #334450",
"E.	c #38464F",
"F.	c #3E484E",
"G.	c #3F454F",
"H.	c #3B4050",
"I.	c #43494E",
"J.	c #41494E",
"K.	c #3A474F",
"L.	c #37464F",
"M.	c #354550",
"N.	c #39464F",
"O.	c #334550",
"P.	c #314451",
"Q.	c #304451",
"R.	c #3E484F",
"S.	c #3F464F",
"T.	c #353B51",
"U.	c #40464F",
"V.	c #434A4E",
"W.	c #40494E",
"X.	c #3C484F",
"Y.	c #3B484F",
"Z.	c #3D484F",
"`.	c #324551",
" +	c #324550",
".+	c #394050",
"++	c #333852",
"@+	c #3B4150",
"#+	c #40474F",
"$+	c #434A4D",
"%+	c #364650",
"&+	c #314551",
"*+	c #3D454F",
"=+	c #384050",
"-+	c #343B51",
";+	c #41474F",
">+	c #344550",
",+	c #374050",
"'+	c #3F474F",
")+	c #424A4E",
"!+	c #44494E",
"~+	c #39474F",
"{+	c #3F494E",
"]+	c #3C4550",
"^+	c #364050",
"/+	c #323B51",
"(+	c #363C51",
"_+	c #394250",
":+	c #444A4D",
"<+	c #364150",
"[+	c #313852",
"}+	c #353C51",
"|+	c #444B4D",
"1+	c #454B4D",
"2+	c #364550",
"3+	c #3D474E",
"4+	c #384250",
"5+	c #333C51",
"6+	c #323852",
"7+	c #334051",
"8+	c #434B4D",
"9+	c #454C4D",
"0+	c #464D4C",
"a+	c #474E4C",
"b+	c #484E4C",
"c+	c #464E4C",
"d+	c #464C4D",
"e+	c #3A4350",
"f+	c #363E51",
"g+	c #324051",
"h+	c #324451",
"i+	c #454D4D",
"j+	c #454E4D",
"k+	c #464F4C",
"l+	c #48504C",
"m+	c #49514B",
"n+	c #3C444F",
"o+	c #334150",
"p+	c #38474F",
"q+	c #3D494F",
"r+	c #414A4E",
"s+	c #484F4C",
"t+	c #46504C",
"u+	c #45504C",
"v+	c #44504D",
"w+	c #44504C",
"x+	c #45514C",
"y+	c #47514C",
"z+	c #363E50",
"A+	c #374450",
"B+	c #39484F",
"C+	c #3D4A4F",
"D+	c #404C4E",
"E+	c #444E4D",
"F+	c #474F4C",
"G+	c #49504C",
"H+	c #49514C",
"I+	c #4A514B",
"J+	c #4A524B",
"K+	c #48514C",
"L+	c #40504D",
"M+	c #3E4E4E",
"N+	c #3F4E4E",
"O+	c #424E4D",
"P+	c #444C4D",
"Q+	c #3E474E",
"R+	c #414D4D",
"S+	c #444F4D",
"T+	c #4B524B",
"U+	c #46514C",
"V+	c #42504D",
"W+	c #3B4E4E",
"X+	c #374C4F",
"Y+	c #364B4F",
"Z+	c #3A4B4F",
"`+	c #3E4A4E",
" @	c #3D424F",
".@	c #373D51",
"+@	c #3A4150",
"@@	c #47504C",
"#@	c #49524B",
"$@	c #3F504E",
"%@	c #384D4F",
"&@	c #324A50",
"*@	c #324850",
"=@	c #36484F",
"-@	c #304551",
";@	c #404E4D",
">@	c #394B4F",
",@	c #344950",
"'@	c #344750",
")@	c #37474F",
"!@	c #3A3F50",
"~@	c #454A4D",
"{@	c #414D4E",
"]@	c #3C4A4F",
"^@	c #38484F",
"/@	c #404A4E",
"(@	c #424C4E",
"_@	c #424B4E",
":@	c #3E494E",
"<@	c #3B494F",
"[@	c #3A4A4F",
"}@	c #3B4B4F",
"|@	c #3F4D4E",
"1@	c #404B4E",
"2@	c #3C4B4E",
"3@	c #374A4F",
"4@	c #344B4F",
"5@	c #364C4F",
"6@	c #3C4D4E",
"7@	c #48514B",
"8@	c #404E4E",
"9@	c #3A4C4E",
"0@	c #344C4F",
"a@	c #304B50",
"b@	c #324B4F",
"c@	c #394D4E",
"d@	c #3F4C4E",
"e@	c #3E464F",
"f@	c #383F50",
"g@	c #3F494F",
"h@	c #434F4C",
"i@	c #3F4F4E",
"j@	c #394E4E",
"k@	c #354C4F",
"l@	c #334C4F",
"m@	c #3B4D4E",
"n@	c #3F4B4E",
"o@	c #353E51",
"p@	c #384750",
"q@	c #3C4E4E",
"r@	c #374D4F",
"s@	c #3D4D4E",
"t@	c #404C4D",
"u@	c #333D51",
"v@	c #334650",
"w@	c #394D4F",
"x@	c #364D4F",
"y@	c #414F4D",
"z@	c #424C4D",
"A@	c #313D51",
"B@	c #304A50",
"C@	c #3A4E4E",
"D@	c #464D4D",
"E@	c #434B4E",
"F@	c #324C4F",
"G@	c #43504C",
"H@	c #444D4D",
"I@	c #313C51",
"J@	c #2F4950",
"K@	c #314B50",
"L@	c #41504D",
"M@	c #313C52",
"N@	c #35494F",
"O@	c #414B4E",
"P@	c #48524C",
"Q@	c #2F4750",
"R@	c #304850",
"S@	c #334850",
"T@	c #3A484F",
"U@	c #47524C",
"V@	c #313B52",
"W@	c #304251",
"X@	c #304650",
"Y@	c #454F4C",
"Z@	c #49524C",
"`@	c #304051",
" #	c #464E4D",
".#	c #454F4D",
"+#	c #43504D",
"@#	c #3C424F",
"##	c #313A52",
"$#	c #303F51",
"%#	c #323A52",
"&#	c #313F51",
"*#	c #2F4B50",
"=#	c #373C51",
"-#	c #333F51",
";#	c #354450",
">#	c #324B50",
",#	c #364051",
"'#	c #39454F",
")#	c #3D4E4E",
"!#	c #4A504B",
"~#	c #3F444F",
"{#	c #383D51",
"]#	c #394150",
"^#	c #3B464F",
"/#	c #354650",
"(#	c #3E4F4E",
"_#	c #3A4250",
":#	c #344650",
"<#	c #3C494F",
"[#	c #434C4D",
"}#	c #44514D",
"|#	c #37454F",
"1#	c #354950",
"2#	c #3E4B4E",
"3#	c #4B514B",
"4#	c #3A434F",
"5#	c #384350",
"6#	c #314151",
"7#	c #304550",
"8#	c #324650",
"9#	c #37494F",
"0#	c #414C4E",
"a#	c #474D4C",
"b#	c #373E51",
"c#	c #343E51",
"d#	c #323E51",
"e#	c #313E51",
"f#	c #314051",
"g#	c #324251",
"h#	c #3A464F",
"i#	c #3C4150",
"j#	c #3C414F",
"k#	c #333B51",
"l#	c #373B51",
"m#	c #363A51",
"                                                                                                                                ",
"                                                                                                                                ",
"                                                                                                                                ",
"              . + .                                                   @ @ @ @ @ @ @ @ @ @ @ @ @ @ @ @ @ # # # @ @               ",
"            . $ % % $ + + + . . . . . . . + + & & & & & & & & * * * * * * * * * * * * * * * = = = - - ; ; ; ; = * @             ",
"            $ > , , ' > % % % % % % % ) ) ! ! ~ { ] ] ] ] ^ ^ / / / ] ( ( ( ( ( ( ( ( ( ( ( ^ ^ / / / _ _ _ _ / ; * @           ",
"            $ ' : < : : , , , , , [ } | 1 2 3 4 4 4 5 5 5 4 6 6 6 6 6 7 7 7 8 8 8 8 8 8 7 5 3 9 7 7 6 0 a a b 8 / - @           ",
"            $ , c d d c c c c e f g h i j k l l k m m n n o m k l l l l p j j q q q q j j i n r s r o m k l l q 8 ( & @         ",
"            $ , c d d d d t t u n v w x x x x w v y z u u A z B l x x x x x x x x x x w l B z u C u z v w x x l 6 / = @         ",
"            $ [ e D D D C u z y v w x x x x x l B A D t t t C A y l x x x x x x x x x w v E u D t C z B l x x l b / = @         ",
"          . ) } g n y y y B v l l w w x x x x l E u t d d d t D A B w x x x x x x x x w v E u D t C z B l x x l a _ - @         ",
"          . ) } s B l w w l v v v v v l w x x v n C t d d d d t u E l x x x x x x x x w l B z u C u z v w x x k a _ - #         ",
"          . ) [ s y v x x l v E z z E v l x x l E u t d d d d t C n l x x x x x x x x x w v y n z n B v w x w k h 1 ; #         ",
"          + F G s y v x w v E A C C A E v x x x B A D t d d d t u E l x x x x x x x x x x w v v v v l w w w v m H I J #         ",
"          & K L r v l w w v z C t t C z v w x x l E u D t t t C z v w x x x x x x x x x x x w w w w w x w v y r L M = #         ",
"        @ N ~ O y v x x w v z C t t C z v w x x x v y z u u A z B l x x x x x x x x x x x x x x x x x x w v n g G P N @         ",
"        @ = I h l x x x x v E A C C A E v x x x x x l v y y y v w x x x x x x x x x l l l l x x x x x x w v z f Q P N @         ",
"        @ - _ R x S S S x T v E n n E v T x S S S S x x T T T x x S S S S S S x T B n z z z y v x x x x x v E s U M N #         ",
"        @ ; 8 w V V V V V W X X T T X X W V V V V Y W X T Z Z X W V V V V V Y X `  ...+.+...@.#.` T X Y V Y Z y H I J #         ",
"      @ # $.%.&.*.*.*.*.*.=.=.=.=.=.=.=.=.-.-.-.=.=.;.>.,.'.,.>.;.=.=.=.=.=.=.,.).!.~.~.~.~.~.{.].^.,.;.=./.(._.:.O ~ #         ",
"      @ # $.<.[.*.}.}.|.|.|.|.|.|.|.|.|.|.|.|.|.|./.;.1.2.3.2.1.;./.|.|.|.*.4.5.{.6.7.7.7.7.7.6.6.{.8.1.9.*.|.=.0.a.( # @       ",
"      @ # ( b.c.|.d.d.d.d.d.d.d.d.d.d.d.d.d.}.}.|./.e.f.g.h.g.f.e.i.|.|.|.(.j.g.6.7.7.7.7.7.7.7.7.6.h.k.j.i.d.|.l.b.m.n.        ",
"      @ n.( o.p.d.q.q.q.q.q.q.q.q.q.q.q.q.q.r.r.d.s.t.u.v.w.v.u.t.s.d.d.x.y.z.w.A.A.A.A.A.A.A.A.B.B.C.D.E.F.q.r.G.H.m.n.@       ",
"      @ n.( o.G.r.I.I.I.I.I.I.I.I.I.I.I.I.I.I.I.I.J.x.K.L.M.L.K.x.J.q.J.x.N.O.P.Q.Q.Q.Q.Q.Q.Q.Q.Q.Q.Q.w.E.R.q.q.S.o.( n.        ",
"      @ n.T.o.U.q.V.V.V.V.V.V.V.V.V.V.V.V.V.V.V.V.q.W.R.X.Y.X.R.W.q.V.J.Z.L.`.Q.Q.Q.Q.Q.Q.Q.Q.Q.Q.Q.Q. +E.F.q.q.p..+T.#         ",
"      @ ++m.@+#+q.V.V.$+$+$+$+V.V.V.V.V.V.V.V.V.V.V.q.W.W.x.W.W.q.I.I.J.Z.%+&+Q.Q.Q.Q.Q.Q.Q.Q.P.P.P. +M.K.W.q.d.*+=+-+#         ",
"      @ ++m.p ;+q.$+$+$+$+$+$+$+V.V.V.V.V.V.V.V.V.V.I.I.q.q.q.I.I.V.I.J.X.>+P.Q.Q.Q.Q.Q.Q.&+ +>+>+M.L.K.R.q.I.d.e.,+! #         ",
"      @ ++m.p '+q.)+V.$+$+$+V.V.!+!+!+!+!+!+!+!+!+I.V.V.I.I.I.V.V.V.V.W.~+ +Q.Q.Q.Q.Q.Q.P.O.E.K.Y.X.Z.{+J.V.V.s.]+^+/+.         ",
"      @ ++(+_+t.{+W.q.V.V.V.V.!+!+!+!+!+!+I.V.V.V.V.V.$+$+$+$+:+:+V.q.Z.%+&+Q.Q.Q.Q.Q.Q.Q.O.~+Z.{+W.J.q.V.$+V.J.e.<+/+[+        ",
"      # ++}+<+u.Y.R.W.q.V.V.V.$+V.V.V.V.V.V.$+$+$+:+:+:+|+1+1+|+|+)+W.Y.>+P.Q.Q.Q.Q.Q.Q.Q. +2+Y.{+q.V.$+$+:+V.q.3+4+5+6+        ",
"      @ = 5+7+v.L.X.W.q.V.$+$+$+$+$+$+$+$+:+$+8+|+9+0+a+b+c+d+1+:+)+W.K.O.Q.Q.Q.Q.Q.Q.Q.Q.Q. +E.R.J.V.$+:+:+:+)+i.e+f+J #       ",
"      # = 5+g+h+M.Y.{+q.:+|+|+1+1+1+1+1+9+9+i+j+k+l+m+m+l+0+1+:+$+q.W.Y.>+Q.Q.Q.Q.Q.Q.Q.Q.Q.P.M.X.J.V.:+:+:+:+V.d.n+b.~ #       ",
"    @ # J G o+>+p+q+r+|+i+0+c+b+s+s+l+l+l+t+u+v+w+x+y+l+0+1+:+$+$+I.W.Z.L. +Q.Q.Q.Q.Q.Q.Q.Q.P.M.X.J.V.:+:+:+$+V.q.G.o.m.n.@     ",
"    @ # ; z+A+B+C+D+E+F+G+H+m+I+J+J+J+J+K+x+L+M+M+N+O+P+|+:+$+$+V.q.J.F.K.M.`.Q.Q.Q.Q.Q.Q.Q.&+%+Z.q.V.:+$+$+V.V.q.U.@+(+= @     ",
"    @ # ~ =+Q+R+S+t+H+J+J+J+J+T+T+T+J+J+U+V+W+X+Y+Z+`+r+V.V.V.V.q.J.W.R.X.E.O.Q.Q.Q.Q.Q.Q.Q. +p+{+)+$+$+V.V.V.V.q.|. @.@= @     ",
"    @ n.( +@8+@@H+J+J+T+T+T+T+T+T+T+J+#@U+$@%@&@*@=@X.{+q.V.V.V.J.{+Z.Y.K.L.>+P.Q.Q.Q.Q.-@&+M.X.J.V.V.V.V.V.V.V.V.}.&.8 ; @     ",
"    @ * ( @+|+m+J+T+T+T+T+T+T+T+T+T+J+#@U+;@>@,@'@)@X.W.q.V.V.q.W.Z.~+%+M.M.O.&+Q.Q.Q.Q.P.O.~+W.I.V.V.V.q.J.J.r+V.r.=.!@$.@     ",
"    @ n.$.H.~@I+T+T+T+T+T+T+T+T+T+T+T+#@U+{@]@^@p+K.Z.W.q.V.V.q.{+Y.%+ + +O. +`.P.Q.Q.&+>+E.x.q.V.$+V.q.W.{+{+/@(@_@|.o.( @     ",
"    @ # $.o.$+I+T+T+T+T+T+T+T+T+T+T+J+m+c+_@{+Z.Z.F.W.q.V.V.V.q.{+Y.%+ +`. +`.`. + +>+2+~+x.q.V.$+:+V.W.:@<@[@}@|@{@|.o.$.@     ",
"    @ # ; !@V.m+T+T+T+T+T+T+T+T+T+J+m+b+9+V.J.W.W.J.q.V.V.V.V.q.W.Z.E.M.O. +&+&+O.%+~+X.{+q.V.:+:+|+_@1@2@3@4@5@6@D+'+!@; @     ",
"      # ; b.V.7@J+J+T+T+T+T+T+J+J+G+c+9+:+V.I.q.q.I.V.V.V.V.V.V.J.{+X.~+L.M.O.O.%+K.R.W.)+V.:+1+9+i+E+8@9@0@a@b@c@d@e@b.; @     ",
"      @ ; f@g@h@U+#@J+T+T+T+J+I+l+0+1+:+$+V.V.V.V.V.V.V.V.V.V.V.q.q.{+Z.Y.~+E.E.K.R.W.)+|+1+9+c+s+t+v+i@j@k@l@k@m@n@e@%.; @     ",
"      @ = o@p@6@L+x+#@J+T+J+m+b+9+1+:+$+V.V.V.V.V.V.V.V.V.V.$+$+V.V.q.J.{+F.Z.R.{+W.V.|+d+a+l+m+m+y+V+q@r@k@k@%@s@t@S.%.- @     ",
"      @ 6+u@v@4@%@$@U+#@I+G+c+9+|+:+$+V.V.V.V.V.V.V.V.V.V.$+$+$+$+$+V.I.q.J.J.J.)+|+9+a+l+m+J+J+#@U+L+w@l@l@x@q@y@z@/.a.- @     ",
"        6+A@Q.B@l@C@V+l+s+D@1+:+$+$+V.V.V.V.V.V.V.V.V.V.$+$+V.V.V.V.V.$+$+V.E@|+9+a+l+m+J+J+T+J+#@U+$@%@F@F@r@M+G@H@*.%.- @     ",
"        . I@Q.J@K@X+|@i+9+|+:+$+$+V.V.V.V.V.V.V.V.V.V.V.V.V.V.V.V.$+$+:+:+1+9+c+l+m+J+T+T+T+T+J+J+U+V+W+r@r@W+L@u+0+*.b.; @     ",
"        . M@Q.J@B@N@]@O@|+:+$+V.V.V.$+$+$+$+$+$+$+$+V.V.V.V.V.$+$+:+|+1+9+c+l+m+J+J+T+T+J+J+J+J+J+P@x+L+M+M+L+x+y+0+}.!@; @     ",
"        . M@B.Q@R@S@T@W.V.$+V.V.$+$+:+:+:+:+$+$+$+V.V.V.V.$+$+:+|+|+9+c+l+m+J+J+T+T+T+J+#@U@U+U+y+P@U@U+x+x+U+P@m+a+r.H.$.@     ",
"        . V@W@X@X@v@K.W.V.V.V.$+$+:+:+:+:+$+$+V.V.V.$+$+$+:+|+|+9+i+Y@t+K+#@J+T+T+T+J+Z@x+V+$@$@L@x+y+P@Z@Z@#@J+m+s+q.@+( #     ",
"        . V@`@Q.&+>+Y.W.V.V.V.V.V.:+$+$+$+$+V.V.$+$+$+:+|+1+9+ #.#v++#v+x+U@J+J+T+T+J+x+$@C@r@r@w@M+x+Z@J+J+J+T+T+s+I.@#m.#     ",
"        . ##$#Q.&+%+X.W.q.J.J.J.q.V.V.$+V.V.V.$+$+:+|+1+d+a+@@t++#i@q@q@$@v+P@J+T+J+P@V+C@0@K@K@l@j@L@y+J+T+T+T+T+G+:+&.m.n.    ",
"        # %#&#P.O.E.Z.{+Z.X.Y.Z.F.W.q.V.V.$+$+:+|+1+d+a+G+m+H+U+L@C@k@k@C@L@U+#@J+J+P@L@%@K@*#*#K@r@$@U+J+T+T+T+T+G+1+[.=#n.@   ",
"        # F -#;#L.K.K.E.2+>+>+M.E.X.W.q.$+:+:+1+9+c+l+m+J+J+#@U+$@r@>#>#r@$@U+#@J+J+P@V+j@l@a@a@b@%@L+U+J+T+T+T+T+G+9+l.=#++@   ",
"      @ # -+,#'#K.~+2+ +&+P.Q.P.O.E.R.q.$+1+9+c+s+m+J+J+T+J+#@U+L@C@k@k@C@L@U+#@J+J+#@x+)#r@0@0@r@q@+#P@J+T+T+T+T+!#9+~#{#= @   ",
"      @ n.T.]#^#K.M.`.Q.Q.Q.Q.Q.P./#X.r+9+c+s+m+I+J+T+T+T+T+J+P@v+$@q@q@$@v+P@J+T+T+J+P@V+i@q@q@(#V+y+J+J+T+T+T+T+!#9+l.8 = @   ",
"      @ n.m._#y.~+O.Q.Q.Q.Q.Q.Q.-@:#<#[#l+m+J+J+T+T+T+T+T+T+J+J+U@x+v+v+x+U@J+J+T+T+J+J+P@x+}#v+x+P@J+J+T+T+T+T+T+G+9+l.=#n.@   ",
"      @ n.T.H.e.|#w.B.B.B.B.Q.-@X@1#2#k+7@m+I+I+I+I+I+I+I+I+I+m+m+K+y+@@l+l+l+G+G+G+G+s+s+F+k+k+F+s+l+G+I+I+I+3#I+G+1+[.=#n.@   ",
"      @ # ( %.4#5#o+6#W@W@W@A.7#8#9#0#c+b+b+b+b+b+b+b+b+b+a+a+a+a#D@i+9+9+9+1+1+|+|+:+:+$+q.q.q.q.$+:+1+d+a#a+b+s+a#q.@#m.n.    ",
"        @ = m.O b#c#d#e#&#f#6#g#;#h#s.d.r.r.r.r.r.r.r.r.r.r.}.}.}.*.*.G.G.~#l.l.[.&.&.@#@#i#i#i#j#@#&.l.G.*.}.r.r.}.l.b.$.#     ",
"        @ # = $.( -+k#k#k#5+u@c#H .+o.H.H.H.H.H.H.H.H.H.H.o.!@!@b.%.%.8 8 {#=#=#=#l#m.m.m.( ( ( m#m.m.=#8 %.!@H.H.H.%.m.= @     ",
"          @ @ # n.n.++++= = J ; ; $.( ( ( ( ( ( ( ( ( ( $.$.; ; ; - - = = = ++n.n.n.n.# # # # # # # n.n.- - ; $.( ( ; = # @     ",
"                @ @ @ @ @ @ @ @ @ @ @ @ @ @ @ @ @ @ @ @ @ @ @ @ @ @ @ @ @ @ @ @ @                     @ @ @ @ @ @ @ @ @ @       ",
"                                                                                                                                ",
"                                                                                                                                "};
